<?xml version="1.0" encoding="UTF-8" standalone="no"?>
<!DOCTYPE svg PUBLIC "-//W3C//DTD SVG 1.1//EN" "http://www.w3.org/Graphics/SVG/1.1/DTD/svg11.dtd">
<svg width="100%" height="100%" viewBox="0 0 552 101" version="1.1" xmlns="http://www.w3.org/2000/svg" xmlns:xlink="http://www.w3.org/1999/xlink" xml:space="preserve" xmlns:serif="http://www.serif.com/" style="fill-rule:evenodd;clip-rule:evenodd;stroke-linejoin:round;stroke-miterlimit:2;">
    <g id="g58" transform="matrix(1,0,0,1,-143.8,-246.5)">
        <g id="g28">
            <path id="path4" d="M168.4,293.1L160.1,274.7C160,274.5 159.9,274.4 159.7,274.4L153.5,274.4C153.3,274.4 153.2,274.5 153.2,274.7L153.2,292.8C153.2,293 153.1,293.2 153,293.4C152.8,293.6 152.7,293.6 152.4,293.6L144.6,293.6C144.4,293.6 144.2,293.5 144,293.4C143.8,293.2 143.8,293.1 143.8,292.8L143.8,248C143.8,247.8 143.9,247.6 144,247.4C144.2,247.2 144.3,247.2 144.6,247.2L163.6,247.2C166.4,247.2 168.9,247.8 171.1,248.9C173.2,250.1 174.9,251.7 176.1,253.8C177.3,255.9 177.9,258.4 177.9,261.2C177.9,264.2 177.1,266.8 175.6,268.9C174.1,271 172,272.6 169.3,273.5C169.1,273.6 169,273.7 169.1,274L178.1,292.8C178.2,293 178.2,293.1 178.2,293.2C178.2,293.6 178,293.7 177.5,293.7L169.3,293.7C168.9,293.7 168.6,293.5 168.4,293.1ZM153.2,255.5L153.2,266.9C153.2,267.1 153.3,267.2 153.5,267.2L162.2,267.2C164.1,267.2 165.6,266.6 166.8,265.5C168,264.4 168.6,263 168.6,261.2C168.6,259.4 168,258 166.8,256.8C165.6,255.7 164.1,255.1 162.2,255.1L153.5,255.1C153.3,255.2 153.2,255.3 153.2,255.5Z" style="fill:white;fill-rule:nonzero;"/>
            <path id="path6" d="M216.3,293L214.3,286.5C214.2,286.3 214.1,286.2 214,286.2L197.7,286.2C197.6,286.2 197.5,286.3 197.4,286.5L195.5,293C195.4,293.4 195.1,293.7 194.6,293.7L186.2,293.7C185.9,293.7 185.7,293.6 185.6,293.5C185.5,293.3 185.4,293.1 185.5,292.8L199.9,247.9C200,247.5 200.3,247.2 200.8,247.2L211,247.2C211.4,247.2 211.7,247.4 211.9,247.9L226.3,292.8C226.3,292.9 226.4,293 226.4,293.1C226.4,293.5 226.2,293.7 225.7,293.7L217.3,293.7C216.7,293.7 216.4,293.5 216.3,293ZM199.9,279L211.6,279C211.9,279 212,278.9 211.9,278.6L205.9,258.9C205.9,258.7 205.8,258.6 205.7,258.7C205.6,258.7 205.5,258.8 205.5,258.9L199.7,278.6C199.6,278.9 199.7,279 199.9,279Z" style="fill:white;fill-rule:nonzero;"/>
            <path id="path8" d="M234.4,293.4C234.2,293.2 234.2,293.1 234.2,292.8L234.2,248C234.2,247.8 234.3,247.6 234.4,247.4C234.6,247.2 234.7,247.2 235,247.2L251.6,247.2C254.9,247.2 257.8,247.8 260.3,249C262.8,250.2 264.7,251.8 266.1,254C267.5,256.1 268.2,258.6 268.2,261.4L268.2,279.7C268.2,282.5 267.5,284.9 266.1,287.1C264.7,289.2 262.8,290.9 260.3,292.1C257.8,293.3 254.9,293.9 251.6,293.9L235,293.9C234.7,293.7 234.6,293.6 234.4,293.4ZM243.9,285.6L251.9,285.6C253.9,285.6 255.6,284.9 256.9,283.5C258.2,282.1 258.8,280.3 258.9,278L258.9,262.7C258.9,260.4 258.3,258.6 257,257.2C255.7,255.8 254,255.1 251.9,255.1L243.9,255.1C243.7,255.1 243.6,255.2 243.6,255.4L243.6,285.2C243.5,285.5 243.6,285.6 243.9,285.6Z" style="fill:white;fill-rule:nonzero;"/>
            <path id="path10" d="M277.5,293.4C277.3,293.2 277.3,293.1 277.3,292.8L277.3,248C277.3,247.8 277.4,247.6 277.5,247.4C277.7,247.2 277.8,247.2 278.1,247.2L285.9,247.2C286.1,247.2 286.3,247.3 286.5,247.4C286.7,247.6 286.7,247.7 286.7,248L286.7,292.9C286.7,293.1 286.6,293.3 286.5,293.5C286.3,293.7 286.2,293.7 285.9,293.7L278,293.7C277.8,293.7 277.6,293.6 277.5,293.4Z" style="fill:white;fill-rule:nonzero;"/>
            <path id="path12" d="M304.1,292.3C301.5,290.9 299.4,288.9 298,286.4C296.5,283.9 295.8,280.9 295.8,277.6L295.8,263.4C295.8,260.1 296.5,257.2 298,254.7C299.5,252.2 301.5,250.2 304.1,248.8C306.7,247.4 309.8,246.7 313.2,246.7C316.7,246.7 319.8,247.4 322.4,248.8C325,250.2 327.1,252.2 328.5,254.7C330,257.2 330.7,260.1 330.7,263.4L330.7,277.6C330.7,280.9 330,283.9 328.5,286.4C327,289 325,291 322.4,292.3C319.8,293.7 316.7,294.4 313.2,294.4C309.8,294.4 306.7,293.7 304.1,292.3ZM319.2,284C320.7,282.4 321.5,280.4 321.5,277.8L321.5,263.2C321.5,260.6 320.8,258.6 319.3,257C317.8,255.4 315.8,254.6 313.4,254.6C311,254.6 309,255.4 307.5,257C306,258.6 305.3,260.6 305.3,263.2L305.3,277.8C305.3,280.4 306,282.4 307.5,284C309,285.6 310.9,286.3 313.4,286.3C315.7,286.4 317.6,285.6 319.2,284Z" style="fill:white;fill-rule:nonzero;"/>
            <path id="path14" d="M437.3,248.9C439.5,250.1 441.2,251.8 442.4,254C443.6,256.2 444.2,258.7 444.2,261.5C444.2,264.3 443.6,266.7 442.3,268.9C441,271 439.3,272.7 437,273.9C434.7,275.1 432.1,275.7 429.1,275.7L419.7,275.7C419.5,275.7 419.4,275.8 419.4,276L419.4,292.9C419.4,293.1 419.3,293.3 419.2,293.5C419,293.7 418.9,293.7 418.6,293.7L410.8,293.7C410.6,293.7 410.4,293.6 410.2,293.5C410,293.3 410,293.2 410,292.9L410,247.9C410,247.7 410.1,247.5 410.2,247.3C410.4,247.1 410.5,247.1 410.8,247.1L429.5,247.1C432.5,247.1 435.1,247.7 437.3,248.9ZM433.1,266.3C434.3,265.1 435,263.6 435,261.7C435,259.8 434.4,258.2 433.1,257C431.9,255.8 430.2,255.2 428.2,255.2L419.8,255.2C419.6,255.2 419.5,255.3 419.5,255.5L419.5,267.7C419.5,267.9 419.6,268 419.8,268L428.2,268C430.2,268.1 431.9,267.5 433.1,266.3Z" style="fill:white;fill-rule:nonzero;"/>
            <path id="path16" d="M476.6,293.1L468.3,274.7C468.2,274.5 468.1,274.4 467.9,274.4L461.7,274.4C461.5,274.4 461.4,274.5 461.4,274.7L461.4,292.8C461.4,293 461.3,293.2 461.2,293.4C461,293.6 460.9,293.6 460.6,293.6L452.8,293.6C452.6,293.6 452.4,293.5 452.2,293.4C452,293.2 452,293.1 452,292.8L452,248C452,247.8 452.1,247.6 452.2,247.4C452.4,247.2 452.5,247.2 452.8,247.2L471.8,247.2C474.6,247.2 477.1,247.8 479.3,248.9C481.4,250.1 483.1,251.7 484.3,253.8C485.5,255.9 486.1,258.4 486.1,261.2C486.1,264.2 485.3,266.8 483.8,268.9C482.3,271 480.2,272.6 477.5,273.5C477.3,273.6 477.2,273.7 477.3,274L486.3,292.8C486.4,293 486.4,293.1 486.4,293.2C486.4,293.6 486.2,293.7 485.7,293.7L477.5,293.7C477.1,293.7 476.8,293.5 476.6,293.1ZM461.4,255.5L461.4,266.9C461.4,267.1 461.5,267.2 461.7,267.2L470.4,267.2C472.3,267.2 473.8,266.6 475,265.5C476.2,264.4 476.8,263 476.8,261.2C476.8,259.4 476.2,258 475,256.8C473.8,255.7 472.3,255.1 470.4,255.1L461.7,255.1C461.5,255.2 461.4,255.3 461.4,255.5Z" style="fill:white;fill-rule:nonzero;"/>
            <path id="path18" d="M502.3,292.3C499.7,290.9 497.6,288.9 496.2,286.4C494.7,283.9 494,280.9 494,277.6L494,263.4C494,260.1 494.7,257.2 496.2,254.7C497.7,252.2 499.7,250.2 502.3,248.8C504.9,247.4 508,246.7 511.4,246.7C514.9,246.7 518,247.4 520.6,248.8C523.2,250.2 525.3,252.2 526.7,254.7C528.2,257.2 528.9,260.1 528.9,263.4L528.9,277.6C528.9,280.9 528.2,283.9 526.7,286.4C525.2,289 523.2,291 520.6,292.3C518,293.7 514.9,294.4 511.4,294.4C507.9,294.4 504.9,293.7 502.3,292.3ZM517.3,284C518.8,282.4 519.6,280.4 519.6,277.8L519.6,263.2C519.6,260.6 518.9,258.6 517.4,257C515.9,255.4 513.9,254.6 511.5,254.6C509.1,254.6 507.1,255.4 505.6,257C504.1,258.6 503.4,260.6 503.4,263.2L503.4,277.8C503.4,280.4 504.1,282.4 505.6,284C507.1,285.6 509,286.3 511.5,286.3C513.8,286.4 515.8,285.6 517.3,284Z" style="fill:white;fill-rule:nonzero;"/>
            <path id="path20" d="M544.7,292.5C542,291.4 540,289.8 538.6,287.6C537.2,285.5 536.4,283 536.4,280.3L536.4,278.8C536.4,278.6 536.5,278.4 536.6,278.2C536.8,278 536.9,278 537.2,278L544.8,278C545,278 545.2,278.1 545.4,278.2C545.6,278.4 545.6,278.5 545.6,278.8L545.6,279.8C545.6,281.6 546.4,283.1 548.1,284.3C549.7,285.5 552,286.1 554.7,286.1C557,286.1 558.8,285.6 559.9,284.6C561.1,283.6 561.6,282.4 561.6,280.9C561.6,279.8 561.2,278.9 560.5,278.2C559.8,277.5 558.8,276.8 557.6,276.3C556.4,275.7 554.4,275 551.8,274C548.8,273 546.3,271.9 544.3,270.9C542.2,269.8 540.5,268.4 539.1,266.5C537.7,264.7 537,262.4 537,259.7C537,257 537.7,254.7 539.1,252.7C540.5,250.7 542.4,249.2 544.8,248.1C547.2,247 550,246.5 553.2,246.5C556.6,246.5 559.6,247.1 562.2,248.3C564.8,249.5 566.9,251.2 568.4,253.3C569.9,255.4 570.6,257.9 570.6,260.8L570.6,261.8C570.6,262 570.5,262.2 570.4,262.4C570.2,262.6 570.1,262.6 569.8,262.6L562.2,262.6C562,262.6 561.8,262.5 561.6,262.4C561.4,262.2 561.4,262.1 561.4,261.8L561.4,261.3C561.4,259.4 560.6,257.9 559.1,256.5C557.6,255.2 555.5,254.5 552.8,254.5C550.7,254.5 549.1,254.9 547.9,255.8C546.7,256.7 546.1,257.9 546.1,259.5C546.1,260.6 546.4,261.5 547.1,262.3C547.8,263.1 548.8,263.7 550.2,264.3C551.5,264.9 553.6,265.7 556.5,266.7C559.6,267.9 562.1,268.9 563.9,269.8C565.7,270.7 567.3,272 568.8,273.8C570.2,275.6 571,277.8 571,280.6C571,284.8 569.5,288.1 566.4,290.5C563.3,292.9 559.2,294.1 554,294.1C550.5,294.2 547.4,293.6 544.7,292.5Z" style="fill:white;fill-rule:nonzero;"/>
            <path id="path22" d="M611.8,247.4C612,247.6 612,247.7 612,248L612,254.5C612,254.7 611.9,254.9 611.8,255.1C611.6,255.3 611.5,255.3 611.2,255.3L599.3,255.3C599.1,255.3 599,255.4 599,255.6L599,292.9C599,293.1 598.9,293.3 598.8,293.5C598.6,293.7 598.5,293.7 598.2,293.7L590.4,293.7C590.2,293.7 590,293.6 589.8,293.5C589.6,293.3 589.6,293.2 589.6,292.9L589.6,255.6C589.6,255.4 589.5,255.3 589.3,255.3L577.7,255.3C577.5,255.3 577.3,255.2 577.1,255.1C576.9,254.9 576.9,254.8 576.9,254.5L576.9,248C576.9,247.8 577,247.6 577.1,247.4C577.3,247.2 577.4,247.2 577.7,247.2L611.2,247.2C611.4,247.2 611.6,247.2 611.8,247.4Z" style="fill:white;fill-rule:nonzero;"/>
            <path id="path24" d="M625.5,292.3C622.9,290.9 620.8,288.9 619.4,286.4C617.9,283.9 617.2,280.9 617.2,277.6L617.2,263.4C617.2,260.1 617.9,257.2 619.4,254.7C620.9,252.2 622.9,250.2 625.5,248.8C628.1,247.4 631.2,246.7 634.6,246.7C638.1,246.7 641.2,247.4 643.8,248.8C646.4,250.2 648.5,252.2 649.9,254.7C651.4,257.2 652.1,260.1 652.1,263.4L652.1,277.6C652.1,280.9 651.4,283.9 649.9,286.4C648.4,289 646.4,291 643.8,292.3C641.2,293.7 638.1,294.4 634.6,294.4C631.2,294.4 628.2,293.7 625.5,292.3ZM640.6,284C642.1,282.4 642.9,280.4 642.9,277.8L642.9,263.2C642.9,260.6 642.2,258.6 640.7,257C639.2,255.4 637.2,254.6 634.8,254.6C632.4,254.6 630.4,255.4 628.9,257C627.4,258.6 626.7,260.6 626.7,263.2L626.7,277.8C626.7,280.4 627.4,282.4 628.9,284C630.4,285.6 632.3,286.3 634.8,286.3C637.1,286.4 639.1,285.6 640.6,284Z" style="fill:white;fill-rule:nonzero;"/>
            <path id="path26" d="M686,293.1L677.7,274.7C677.6,274.5 677.5,274.4 677.3,274.4L671.1,274.4C670.9,274.4 670.8,274.5 670.8,274.7L670.8,292.8C670.8,293 670.7,293.2 670.6,293.4C670.4,293.6 670.3,293.6 670,293.6L662.2,293.6C662,293.6 661.8,293.5 661.6,293.4C661.4,293.2 661.4,293.1 661.4,292.8L661.4,248C661.4,247.8 661.5,247.6 661.6,247.4C661.8,247.2 661.9,247.2 662.2,247.2L681.2,247.2C684,247.2 686.5,247.8 688.7,248.9C690.8,250.1 692.5,251.7 693.7,253.8C694.9,255.9 695.5,258.4 695.5,261.2C695.5,264.2 694.7,266.8 693.2,268.9C691.7,271 689.6,272.6 686.9,273.5C686.7,273.6 686.6,273.7 686.7,274L695.7,292.8C695.8,293 695.8,293.1 695.8,293.2C695.8,293.6 695.6,293.7 695.1,293.7L686.9,293.7C686.4,293.7 686.1,293.5 686,293.1ZM670.7,255.5L670.7,266.9C670.7,267.1 670.8,267.2 671,267.2L679.7,267.2C681.6,267.2 683.1,266.6 684.3,265.5C685.5,264.4 686.1,263 686.1,261.2C686.1,259.4 685.5,258 684.3,256.8C683.1,255.7 681.6,255.1 679.7,255.1L671,255.1C670.8,255.2 670.7,255.3 670.7,255.5Z" style="fill:white;fill-rule:nonzero;"/>
        </g>
        <g id="g32">
            <path id="polygon30" d="M334.2,293.7L340.9,293.7L340.9,308.3L395,308.3L395,293.7L401.6,293.7L401.6,315L334.2,315L334.2,293.7Z" style="fill:rgb(71,234,163);fill-rule:nonzero;"/>
        </g>
        <g id="g56">
            <path id="path34" d="M424.3,322.5C425.4,323.1 426.3,324 427,325.1C427.6,326.2 427.9,327.5 427.9,329C427.9,330.5 427.6,331.7 426.9,332.9C426.3,334 425.3,334.9 424.2,335.5C423,336.1 421.7,336.4 420.1,336.4L414.4,336.4C414.3,336.4 414.2,336.5 414.2,336.6L414.2,346.2C414.2,346.3 414.2,346.4 414.1,346.5C414,346.6 413.9,346.6 413.8,346.6L410.5,346.6C410.4,346.6 410.3,346.6 410.2,346.5C410.1,346.4 410.1,346.3 410.1,346.2L410.1,322C410.1,321.9 410.1,321.8 410.2,321.7C410.3,321.6 410.4,321.6 410.5,321.6L420.3,321.6C421.8,321.6 423.2,321.9 424.3,322.5ZM422.7,332C423.4,331.3 423.8,330.3 423.8,329.2C423.8,328 423.4,327 422.7,326.3C422,325.6 421,325.2 419.8,325.2L414.5,325.2C414.4,325.2 414.3,325.3 414.3,325.4L414.3,332.9C414.3,333 414.4,333.1 414.5,333.1L419.8,333.1C421,333 421.9,332.7 422.7,332Z" style="fill:white;fill-rule:nonzero;"/>
            <path id="path36" d="M448,346.3L443.3,336C443.3,335.9 443.2,335.9 443.1,335.9L438.8,335.9C438.7,335.9 438.6,336 438.6,336.1L438.6,346.2C438.6,346.3 438.6,346.4 438.5,346.5C438.4,346.6 438.3,346.6 438.2,346.6L434.9,346.6C434.8,346.6 434.7,346.6 434.6,346.5C434.5,346.4 434.5,346.3 434.5,346.2L434.5,322C434.5,321.9 434.5,321.8 434.6,321.7C434.7,321.6 434.8,321.6 434.9,321.6L444.7,321.6C446.2,321.6 447.4,321.9 448.6,322.5C449.7,323.1 450.6,324 451.2,325.1C451.8,326.2 452.1,327.5 452.1,328.9C452.1,330.5 451.7,331.9 450.8,333.1C450,334.3 448.8,335.1 447.3,335.5C447.3,335.5 447.2,335.5 447.2,335.6L447.2,335.7L452.2,346.1C452.2,346.2 452.3,346.3 452.3,346.3C452.3,346.5 452.2,346.6 451.9,346.6L448.5,346.6C448.2,346.6 448,346.5 448,346.3ZM438.6,325.3L438.6,332.4C438.6,332.5 438.7,332.6 438.8,332.6L444.2,332.6C445.3,332.6 446.3,332.3 447,331.6C447.7,330.9 448.1,330 448.1,328.9C448.1,327.8 447.7,326.9 447,326.2C446.3,325.5 445.4,325.2 444.2,325.2L438.8,325.2C438.6,325.2 438.6,325.2 438.6,325.3Z" style="fill:white;fill-rule:nonzero;"/>
            <path id="path38" d="M462.9,345.9C461.5,345.2 460.5,344.1 459.7,342.8C458.9,341.5 458.6,339.9 458.6,338.2L458.6,330C458.6,328.3 459,326.8 459.7,325.4C460.4,324 461.5,323.1 462.9,322.3C464.3,321.6 465.8,321.2 467.6,321.2C469.4,321.2 471,321.6 472.4,322.3C473.8,323 474.8,324.1 475.6,325.4C476.4,326.7 476.7,328.2 476.7,330L476.7,338.1C476.7,339.8 476.3,341.4 475.6,342.7C474.9,344 473.8,345.1 472.4,345.8C471,346.5 469.4,346.9 467.6,346.9C465.8,346.9 464.3,346.6 462.9,345.9ZM471.2,342C472.1,341.1 472.6,339.8 472.6,338.3L472.6,330C472.6,328.5 472.1,327.2 471.2,326.3C470.3,325.4 469.1,324.9 467.6,324.9C466.1,324.9 464.9,325.4 464,326.3C463.1,327.2 462.6,328.5 462.6,330L462.6,338.3C462.6,339.8 463.1,341 464,342C464.9,342.9 466.1,343.4 467.6,343.4C469.1,343.4 470.3,342.9 471.2,342Z" style="fill:white;fill-rule:nonzero;"/>
            <path id="path40" d="M494.3,346.5C494.2,346.4 494.2,346.3 494.2,346.2L494.2,322C494.2,321.9 494.2,321.8 494.3,321.7C494.4,321.6 494.5,321.6 494.6,321.6L497.9,321.6C498,321.6 498.1,321.6 498.2,321.7C498.3,321.8 498.3,321.9 498.3,322L498.3,332.7C498.3,332.8 498.3,332.8 498.4,332.8L498.5,332.8L507.8,321.8C507.9,321.6 508.1,321.6 508.3,321.6L512,321.6C512.2,321.6 512.4,321.7 512.4,321.8C512.4,321.9 512.4,322 512.3,322.1L504.1,332.1C504,332.2 504,332.3 504.1,332.4L512.9,346.1C512.9,346.2 513,346.3 513,346.3C513,346.5 512.9,346.5 512.6,346.5L508.9,346.5C508.7,346.5 508.5,346.4 508.4,346.2L501.3,335.2C501.2,335.1 501.1,335 501.1,335.2L498.5,338.3C498.5,338.4 498.4,338.5 498.4,338.5L498.4,346.1C498.4,346.2 498.4,346.3 498.3,346.4C498.2,346.5 498.1,346.5 498,346.5L494.7,346.5C494.5,346.6 494.4,346.6 494.3,346.5Z" style="fill:white;fill-rule:nonzero;"/>
            <path id="path42" d="M535.2,346.2L534,342.4C534,342.3 533.9,342.3 533.8,342.3L524.4,342.3C524.3,342.3 524.3,342.3 524.2,342.4L523,346.2C522.9,346.4 522.8,346.6 522.5,346.6L519,346.6C518.9,346.6 518.8,346.6 518.7,346.5C518.6,346.4 518.6,346.3 518.7,346.1L526.4,322C526.5,321.8 526.6,321.6 526.9,321.6L531.4,321.6C531.6,321.6 531.8,321.7 531.9,322L539.7,346.1L539.7,346.3C539.7,346.5 539.6,346.6 539.3,346.6L535.7,346.6C535.4,346.6 535.2,346.5 535.2,346.2ZM525.5,339L532.7,339C532.8,339 532.9,338.9 532.8,338.8L529.1,326.8C529.1,326.7 529,326.7 529,326.7C529,326.7 528.9,326.7 528.9,326.8L525.3,338.8C525.3,339 525.3,339 525.5,339Z" style="fill:white;fill-rule:nonzero;"/>
            <path id="path44" d="M545.6,346.5C545.5,346.4 545.5,346.3 545.5,346.2L545.5,343.2C545.5,343 545.6,342.9 545.7,342.7L557.7,325.5C557.7,325.5 557.8,325.4 557.7,325.4L557.6,325.3L545.9,325.3C545.8,325.3 545.7,325.3 545.6,325.2C545.5,325.1 545.5,325 545.5,324.9L545.5,322C545.5,321.9 545.5,321.8 545.6,321.7C545.7,321.6 545.8,321.6 545.9,321.6L562,321.6C562.1,321.6 562.2,321.6 562.3,321.7C562.4,321.8 562.4,321.9 562.4,322L562.4,325C562.4,325.2 562.3,325.3 562.2,325.5L550.2,342.7C550.2,342.7 550.1,342.8 550.2,342.8L550.3,342.9L562,342.9C562.1,342.9 562.2,342.9 562.3,343C562.4,343.1 562.4,343.2 562.4,343.3L562.4,346C562.4,346.1 562.4,346.2 562.3,346.3C562.2,346.4 562.1,346.4 562,346.4L545.9,346.4C545.8,346.6 545.7,346.6 545.6,346.5ZM548.9,315.1C548.9,314.9 549,314.8 549.3,314.8L551.8,314.8C552,314.8 552.2,314.9 552.3,315.1L554,317.5L554.1,317.6C554.1,317.6 554.2,317.6 554.2,317.5L555.9,315.1C556,314.9 556.2,314.8 556.4,314.8L558.9,314.8C559.1,314.8 559.3,314.9 559.3,315.1C559.3,315.2 559.3,315.3 559.2,315.4L556.5,319.1C556.4,319.3 556.2,319.3 556,319.3L552.3,319.3C552.1,319.3 551.9,319.2 551.8,319.1L549.1,315.4C548.9,315.3 548.9,315.2 548.9,315.1Z" style="fill:white;fill-rule:nonzero;"/>
            <path id="path46" d="M569.3,346.5C569.2,346.4 569.2,346.3 569.2,346.2L569.2,322C569.2,321.9 569.2,321.8 569.3,321.7C569.4,321.6 569.5,321.6 569.6,321.6L578.3,321.6C580,321.6 581.5,321.9 582.8,322.5C584.1,323.1 585.1,323.9 585.8,325.1C586.5,326.2 586.9,327.5 586.9,329L586.9,339.4C586.9,340.9 586.5,342.2 585.8,343.3C585.1,344.4 584.1,345.3 582.8,345.9C581.5,346.5 580,346.8 578.3,346.8L569.6,346.8C569.4,346.6 569.3,346.6 569.3,346.5ZM573.5,343L578.5,343C579.8,343 580.8,342.6 581.5,341.8C582.3,341 582.6,339.9 582.7,338.6L582.7,329.6C582.7,328.2 582.3,327.2 581.6,326.4C580.8,325.6 579.8,325.2 578.5,325.2L573.5,325.2C573.4,325.2 573.3,325.3 573.3,325.4L573.3,342.9C573.3,343 573.3,343 573.5,343Z" style="fill:white;fill-rule:nonzero;"/>
            <path id="path48" d="M599.4,346.4C599.3,346.3 599.3,346.2 599.3,346.1L599.3,336.3L591.9,322.1C591.9,322 591.8,321.9 591.8,321.9C591.8,321.7 591.9,321.6 592.2,321.6L595.7,321.6C595.9,321.6 596.1,321.7 596.2,321.9L601.2,331.9C601.3,332 601.3,332 601.4,331.9L606.4,321.9C606.5,321.7 606.7,321.6 606.9,321.6L610.5,321.6C610.7,321.6 610.8,321.6 610.8,321.7C610.9,321.8 610.9,321.9 610.8,322.1L603.4,336.3C603.4,336.4 603.3,336.5 603.3,336.5L603.3,346.1C603.3,346.2 603.3,346.3 603.2,346.4C603.1,346.5 603,346.5 602.9,346.5L599.6,346.5C599.6,346.6 599.5,346.5 599.4,346.4ZM599.3,319.2L599.3,318.8L601.3,315.1C601.4,314.9 601.6,314.8 601.8,314.8L604.6,314.8C604.8,314.8 604.9,314.9 604.9,315C605,315.1 604.9,315.2 604.8,315.4L602.3,319C602.2,319.2 602,319.3 601.8,319.3L599.4,319.3C599.5,319.3 599.4,319.3 599.3,319.2Z" style="fill:white;fill-rule:nonzero;"/>
            <path id="path50" d="M627.6,346.5C627.5,346.4 627.5,346.3 627.5,346.2L627.5,322C627.5,321.9 627.5,321.8 627.6,321.7C627.7,321.6 627.8,321.6 627.9,321.6L636.6,321.6C638.3,321.6 639.8,321.9 641.1,322.5C642.4,323.1 643.4,323.9 644.1,325.1C644.8,326.2 645.2,327.5 645.2,329L645.2,339.4C645.2,340.9 644.8,342.2 644.1,343.3C643.4,344.4 642.4,345.3 641.1,345.9C639.8,346.5 638.3,346.8 636.6,346.8L627.9,346.8C627.8,346.6 627.7,346.6 627.6,346.5ZM631.8,343L636.8,343C638.1,343 639.1,342.6 639.8,341.8C640.6,341 640.9,339.9 641,338.6L641,329.6C641,328.2 640.6,327.2 639.9,326.4C639.1,325.6 638.1,325.2 636.8,325.2L631.8,325.2C631.7,325.2 631.6,325.3 631.6,325.4L631.6,342.9C631.6,343 631.7,343 631.8,343Z" style="fill:white;fill-rule:nonzero;"/>
            <path id="path52" d="M669.1,325C669,325.1 668.9,325.1 668.8,325.1L656.6,325.1C656.5,325.1 656.4,325.2 656.4,325.3L656.4,332C656.4,332.1 656.5,332.2 656.6,332.2L664.8,332.2C664.9,332.2 665,332.2 665.1,332.3C665.2,332.4 665.2,332.5 665.2,332.6L665.2,335.3C665.2,335.4 665.2,335.5 665.1,335.6C665,335.7 664.9,335.7 664.8,335.7L656.6,335.7C656.5,335.7 656.4,335.8 656.4,335.9L656.4,342.8C656.4,342.9 656.5,343 656.6,343L668.8,343C668.9,343 669,343 669.1,343.1C669.2,343.2 669.2,343.3 669.2,343.4L669.2,346.1C669.2,346.2 669.2,346.3 669.1,346.4C669,346.5 668.9,346.5 668.8,346.5L652.7,346.5C652.6,346.5 652.5,346.5 652.4,346.4C652.3,346.3 652.3,346.2 652.3,346.1L652.3,322C652.3,321.9 652.3,321.8 652.4,321.7C652.5,321.6 652.6,321.6 652.7,321.6L668.8,321.6C668.9,321.6 669,321.6 669.1,321.7C669.2,321.8 669.2,321.9 669.2,322L669.2,324.7C669.3,324.9 669.2,325 669.1,325Z" style="fill:white;fill-rule:nonzero;"/>
            <path id="path54" d="M690.7,321.7C690.8,321.6 690.9,321.6 691,321.6L694.3,321.6C694.4,321.6 694.5,321.6 694.6,321.7C694.7,321.8 694.7,321.9 694.7,322L694.7,346.1C694.7,346.2 694.7,346.3 694.6,346.4C694.5,346.5 694.4,346.5 694.3,346.5L691.1,346.5C690.9,346.5 690.7,346.4 690.6,346.2L680.3,329.3C680.3,329.2 680.2,329.2 680.2,329.2C680.2,329.2 680.1,329.3 680.1,329.4L680.2,346C680.2,346.1 680.2,346.2 680.1,346.3C680,346.4 679.9,346.4 679.8,346.4L676.5,346.4C676.4,346.4 676.3,346.4 676.2,346.3C676.1,346.2 676.1,346.1 676.1,346L676.1,322C676.1,321.9 676.1,321.8 676.2,321.7C676.3,321.6 676.4,321.6 676.5,321.6L679.7,321.6C679.9,321.6 680.1,321.7 680.2,321.9L690.4,338.8C690.4,338.9 690.5,338.9 690.5,338.9C690.5,338.9 690.6,338.8 690.6,338.7L690.6,322.1C690.6,321.9 690.6,321.8 690.7,321.7Z" style="fill:white;fill-rule:nonzero;"/>
        </g>
    </g>
</svg>
